<?xml version="1.0" encoding="UTF-8"?>
<!DOCTYPE svg PUBLIC "-//W3C//DTD SVG 1.1//EN" "http://www.w3.org/Graphics/SVG/1.1/DTD/svg11.dtd">
<svg xmlns="http://www.w3.org/2000/svg" version="1.1" width="512px" height="512px" style="shape-rendering:geometricPrecision; text-rendering:geometricPrecision; image-rendering:optimizeQuality; fill-rule:evenodd; clip-rule:evenodd" xmlns:xlink="http://www.w3.org/1999/xlink">
<g><path style="opacity:0.999" fill="#010101" d="M 40.5,-0.5 C 183.833,-0.5 327.167,-0.5 470.5,-0.5C 491.833,5.5 505.5,19.1667 511.5,40.5C 511.5,183.833 511.5,327.167 511.5,470.5C 505.5,491.833 491.833,505.5 470.5,511.5C 327.167,511.5 183.833,511.5 40.5,511.5C 19.1667,505.5 5.5,491.833 -0.5,470.5C -0.5,327.167 -0.5,183.833 -0.5,40.5C 5.5,19.1667 19.1667,5.5 40.5,-0.5 Z"/></g>
<g><path style="opacity:1" fill="#f7f7f7" d="M 158.5,132.5 C 206.45,130.147 244.45,148.147 272.5,186.5C 269.909,189.13 266.909,190.63 263.5,191C 237.158,155.751 201.825,139.751 157.5,143C 101.212,153.621 68.0452,187.121 58,243.5C 55.5764,297.523 78.4098,336.357 126.5,360C 176.662,377.837 220.162,367.671 257,329.5C 259.692,326.308 262.192,322.975 264.5,319.5C 267.972,321.148 270.472,323.482 272,326.5C 240.437,367.364 198.937,384.198 147.5,377C 94.8973,364.064 62.3973,331.231 50,278.5C 42.4137,222.518 62.2471,179.351 109.5,149C 124.913,140.363 141.246,134.863 158.5,132.5 Z"/></g>
<g><path style="opacity:1" fill="#f6f6f6" d="M 363.5,132.5 C 396.898,130.14 427.564,137.973 455.5,156C 458.167,158.333 460.833,160.667 463.5,163C 461.072,164.961 458.572,166.794 456,168.5C 428.508,148.523 397.675,140.023 363.5,143C 313.879,151.402 292.379,180.569 299,230.5C 306.913,259.41 325.746,275.91 355.5,280C 366.5,280.333 377.5,280.667 388.5,281C 400.063,286.326 403.896,295.16 400,307.5C 396.2,314.938 390.033,318.771 381.5,319C 364.198,321.292 347.531,319.125 331.5,312.5C 332.509,309.483 334.843,307.149 338.5,305.5C 342.353,307.106 346.353,308.272 350.5,309C 362.558,309.915 374.558,309.581 386.5,308C 391.155,305.103 392.655,300.937 391,295.5C 390.167,293.333 388.667,291.833 386.5,291C 376.167,290.667 365.833,290.333 355.5,290C 317.704,284.538 295.204,263.038 288,225.5C 283.572,179.824 303.072,149.991 346.5,136C 352.315,134.871 357.981,133.705 363.5,132.5 Z"/></g>
<g><path style="opacity:1" fill="#f7f7f7" d="M 157.5,152.5 C 198.883,149.606 231.883,164.606 256.5,197.5C 253.909,200.13 250.909,201.63 247.5,202C 225.831,173.005 196.831,160.005 160.5,163C 115.039,170.793 87.5393,197.293 78,242.5C 75.0697,293.851 97.5697,328.351 145.5,346C 187.489,355.23 221.489,342.896 247.5,309C 250.876,309.541 253.542,311.375 255.5,314.5C 230.18,348.898 196.18,363.398 153.5,358C 118.615,350.654 93.1149,331.154 77,299.5C 56.963,246.461 69.463,202.961 114.5,169C 127.86,160.641 142.194,155.141 157.5,152.5 Z"/></g>
<g><path style="opacity:1" fill="#f7f7f7" d="M 361.5,152.5 C 388.697,150.405 414.364,155.572 438.5,168C 441.909,170.034 444.909,172.534 447.5,175.5C 445.393,177.727 443.06,179.727 440.5,181.5C 421.112,168.275 399.612,161.941 376,162.5C 350.826,160.748 332.16,170.748 320,192.5C 313.089,214.154 317.255,233.321 332.5,250C 337.723,253.779 343.39,256.779 349.5,259C 362.12,260.231 374.786,260.898 387.5,261C 409.593,264.263 420.927,277.097 421.5,299.5C 420.528,320.312 409.861,333.145 389.5,338C 367.81,341.663 346.81,339.329 326.5,331C 322.449,328.982 318.783,326.482 315.5,323.5C 317.602,321.23 320.102,319.563 323,318.5C 345.853,330.079 369.687,332.579 394.5,326C 408.588,318.787 414.088,307.287 411,291.5C 408.546,281.382 402.379,274.882 392.5,272C 380.203,270.823 367.87,270.157 355.5,270C 326.681,264.846 310.515,247.679 307,218.5C 305.24,188.85 318.074,168.35 345.5,157C 350.906,155.295 356.239,153.795 361.5,152.5 Z"/></g>
<g><path style="opacity:1" fill="#f7f7f7" d="M 157.5,172.5 C 182.91,169.808 205.577,176.308 225.5,192C 231.105,196.766 235.772,202.266 239.5,208.5C 237.469,210.522 235.135,212.189 232.5,213.5C 208.874,184.795 179.207,175.961 143.5,187C 104.854,206.464 90.6877,237.297 101,279.5C 116.78,316.98 144.946,333.147 185.5,328C 205.184,323.836 220.851,313.67 232.5,297.5C 236.022,298.845 238.189,301.178 239,304.5C 215.949,333.521 186.116,344.354 149.5,337C 109.436,323.888 88.769,296.221 87.5,254C 91.3167,210.02 114.65,182.853 157.5,172.5 Z"/></g>
<g><path style="opacity:1" fill="#f6f6f6" d="M 362.5,172.5 C 382.141,170.574 401.141,173.074 419.5,180C 424.335,181.914 428.669,184.581 432.5,188C 429.989,189.848 427.489,191.681 425,193.5C 416.771,188.756 407.937,185.589 398.5,184C 383.731,181.67 369.065,182.004 354.5,185C 338.576,192.735 333.076,205.235 338,222.5C 340.5,231.667 346.333,237.5 355.5,240C 369.202,240.138 382.869,240.805 396.5,242C 418.484,247.318 432.651,260.818 439,282.5C 446.289,320.779 431.456,345.612 394.5,357C 363.32,362.486 333.987,357.486 306.5,342C 303.98,340.237 301.647,338.237 299.5,336C 302.011,334.152 304.511,332.319 307,330.5C 336.715,349.445 368.548,353.945 402.5,344C 420.91,335.198 430.577,320.532 431.5,300C 430.461,271.3 415.795,254.967 387.5,251C 375.11,250.918 362.777,250.251 350.5,249C 334.196,241.752 326.196,229.086 326.5,211C 326.559,197.88 331.893,187.547 342.5,180C 348.885,176.377 355.552,173.877 362.5,172.5 Z"/></g>
<g><path style="opacity:1" fill="#f7f7f7" d="M 163.5,191.5 C 185.976,190.496 204.809,198.163 220,214.5C 221.602,216.369 222.602,218.369 223,220.5C 220.667,222.167 218.333,223.833 216,225.5C 199.848,204.916 179.015,197.749 153.5,204C 120.529,219.777 110.029,244.944 122,279.5C 135.78,304.214 156.613,313.714 184.5,308C 191.002,306.415 197.002,303.748 202.5,300C 207.675,295.991 212.342,291.491 216.5,286.5C 218.833,288.333 221.167,290.167 223.5,292C 203.394,317.81 177.727,325.476 146.5,315C 116.759,300.028 103.926,275.861 108,242.5C 116.213,214.114 134.713,197.114 163.5,191.5 Z"/></g>
<g><path style="opacity:1" fill="#f6f6f6" d="M 367.5,191.5 C 384.912,190.258 401.579,193.091 417.5,200C 414.872,202.466 411.872,204.299 408.5,205.5C 394.374,201.869 380.041,200.703 365.5,202C 356.57,204.467 354.07,209.967 358,218.5C 358.903,219.701 360.069,220.535 361.5,221C 374.865,221.168 388.199,221.834 401.5,223C 434.744,230.912 454.244,251.746 460,285.5C 463.736,338.191 439.57,369.024 387.5,378C 356.66,381.565 327.66,375.899 300.5,361C 294.584,357.546 289.251,353.38 284.5,348.5C 286.856,346.31 289.356,344.31 292,342.5C 309.914,357.033 330.414,365.533 353.5,368C 377.6,371.636 400.267,367.636 421.5,356C 441.799,341.733 451.466,322.067 450.5,297C 448.435,259.935 429.102,238.268 392.5,232C 381.833,231.667 371.167,231.333 360.5,231C 352.886,229.053 348.386,224.22 347,216.5C 345.182,208.622 347.348,202.122 353.5,197C 358.017,194.445 362.684,192.612 367.5,191.5 Z"/></g>
</svg>
