<svg width="25" height="24" viewBox="0 0 25 24" fill="none" xmlns="http://www.w3.org/2000/svg">
<path d="M12.5 0C19.13 0 24.5 5.37 24.5 12C24.4994 14.5143 23.7103 16.9651 22.2438 19.0074C20.7773 21.0498 18.7072 22.5808 16.325 23.385C15.725 23.505 15.5 23.13 15.5 22.815C15.5 22.41 15.515 21.12 15.515 19.515C15.515 18.39 15.14 17.67 14.705 17.295C17.375 16.995 20.18 15.975 20.18 11.37C20.18 10.05 19.715 8.985 18.95 8.145C19.07 7.845 19.49 6.615 18.83 4.965C18.83 4.965 17.825 4.635 15.53 6.195C14.57 5.925 13.55 5.79 12.53 5.79C11.51 5.79 10.49 5.925 9.53 6.195C7.235 4.65 6.23 4.965 6.23 4.965C5.57 6.615 5.99 7.845 6.11 8.145C5.345 8.985 4.88 10.065 4.88 11.37C4.88 15.96 7.67 16.995 10.34 17.295C9.995 17.595 9.68 18.12 9.575 18.9C8.885 19.215 7.16 19.725 6.08 17.91C5.855 17.55 5.18 16.665 4.235 16.68C3.23 16.695 3.83 17.25 4.25 17.475C4.76 17.76 5.345 18.825 5.48 19.17C5.72 19.845 6.5 21.135 9.515 20.58C9.515 21.585 9.53 22.53 9.53 22.815C9.53 23.13 9.305 23.49 8.705 23.385C6.31496 22.5895 4.2361 21.0615 2.76334 19.018C1.29057 16.9744 0.498679 14.519 0.500002 12C0.500002 5.37 5.87 0 12.5 0Z" fill="white"/>
</svg>
