<svg width="21" height="20" viewBox="0 0 21 20" fill="none" xmlns="http://www.w3.org/2000/svg">
<path d="M3.05193 5C4.46132 5 5.60386 3.88071 5.60386 2.5C5.60386 1.11929 4.46132 0 3.05193 0C1.64254 0 0.5 1.11929 0.5 2.5C0.5 3.88071 1.64254 5 3.05193 5Z" fill="white"/>
<path d="M5.17854 6.6665H0.925321C0.690544 6.6665 0.5 6.85317 0.5 7.08317V19.5832C0.5 19.8132 0.690544 19.9998 0.925321 19.9998H5.17854C5.41331 19.9998 5.60386 19.8132 5.60386 19.5832V7.08317C5.60386 6.85317 5.41331 6.6665 5.17854 6.6665Z" fill="white"/>
<path d="M17.8501 6.09271C16.0323 5.48271 13.7585 6.01855 12.3949 6.97938C12.3481 6.80021 12.1814 6.66688 11.9832 6.66688H7.73001C7.49523 6.66688 7.30469 6.85355 7.30469 7.08355V19.5835C7.30469 19.8135 7.49523 20.0002 7.73001 20.0002H11.9832C12.218 20.0002 12.4085 19.8135 12.4085 19.5835V10.6002C13.0959 10.0202 13.9814 9.83521 14.7061 10.1369C15.4088 10.4277 15.8111 11.1377 15.8111 12.0835V19.5835C15.8111 19.8135 16.0017 20.0002 16.2364 20.0002H20.4897C20.7244 20.0002 20.915 19.8135 20.915 19.5835V11.2444C20.8665 7.82021 19.2222 6.55271 17.8501 6.09271Z" fill="white"/>
</svg>
